<?xml version="1.0" standalone="no"?>
<!DOCTYPE svg PUBLIC "-//W3C//DTD SVG 20010904//EN"
 "http://www.w3.org/TR/2001/REC-SVG-20010904/DTD/svg10.dtd">
<svg version="1.0" xmlns="http://www.w3.org/2000/svg"
 width="3448.000000pt" height="1181.000000pt" viewBox="0 0 3448.000000 1181.000000"
 preserveAspectRatio="xMidYMid meet">

<g transform="translate(0.000000,1181.000000) scale(0.100000,-0.100000)"
fill="#000000" stroke="none">
<path d="M5605 11780 c-97 -25 -158 -53 -232 -106 -117 -83 -197 -214 -215
-347 l-10 -72 201 -590 c111 -324 201 -595 201 -602 0 -9 -16 -13 -53 -13
-196 0 -623 -77 -911 -165 -65 -20 -121 -33 -124 -30 -3 2 -24 287 -47 632
l-41 628 -29 52 c-58 108 -185 201 -326 239 -94 25 -252 23 -353 -5 -253 -70
-444 -261 -492 -491 -18 -86 -12 -190 14 -257 12 -29 147 -191 425 -508 224
-256 407 -468 407 -473 0 -4 -30 -23 -67 -41 -235 -115 -557 -328 -768 -506
-33 -28 -66 -54 -73 -59 -9 -6 -88 144 -297 566 l-284 573 -49 33 c-27 18 -78
45 -113 60 -58 24 -76 27 -189 27 -112 0 -134 -3 -208 -29 -198 -67 -364 -232
-440 -434 -34 -91 -43 -270 -17 -358 21 -74 69 -164 103 -197 15 -13 277 -148
582 -299 305 -150 557 -277 558 -282 2 -4 -34 -53 -81 -109 -181 -220 -359
-485 -470 -705 -31 -61 -57 -100 -64 -98 -7 3 -222 189 -478 413 -297 260
-480 413 -503 421 -20 8 -72 16 -114 19 -280 21 -531 -173 -630 -487 -19 -63
-23 -96 -22 -200 0 -109 3 -135 27 -203 34 -96 78 -167 144 -229 97 -90 55
-82 765 -129 348 -23 634 -43 635 -44 2 -1 -11 -42 -27 -91 -41 -120 -115
-421 -140 -568 -11 -66 -27 -189 -36 -275 -9 -86 -17 -157 -18 -158 -1 -1
-271 90 -601 201 l-600 203 -68 -8 c-203 -25 -389 -205 -453 -439 -25 -90 -25
-290 0 -380 65 -237 239 -407 448 -440 l67 -10 592 200 c325 110 597 200 604
200 8 0 15 -27 19 -82 26 -318 99 -691 185 -940 11 -32 16 -60 11 -63 -4 -3
-289 -24 -632 -46 -713 -47 -667 -39 -779 -149 -180 -178 -211 -477 -78 -750
58 -116 181 -242 289 -293 95 -45 144 -56 251 -57 156 0 128 -19 658 445 l474
415 77 -143 c136 -252 262 -442 428 -647 l110 -135 -572 -285 c-560 -280 -572
-286 -609 -335 -159 -212 -110 -561 112 -783 198 -198 499 -260 720 -148 102
52 96 42 397 651 l282 570 -34 28 -34 28 0 1535 0 1534 65 0 65 0 0 -1588 0
-1588 33 -31 c17 -17 77 -66 132 -108 l100 -78 5 644 5 644 63 3 62 3 0 -693
0 -693 23 -14 c76 -49 247 -151 251 -151 4 0 6 1183 6 2630 l0 2630 65 0 65 0
2 -2666 c3 -2655 3 -2667 23 -2678 11 -6 21 -12 23 -13 2 -1 -185 -217 -416
-481 -470 -537 -448 -503 -446 -667 1 -154 60 -283 184 -406 161 -160 400
-235 620 -195 157 28 285 109 367 232 l36 54 43 638 c24 350 43 638 44 640 0
3 29 -5 58 -15 9 -4 12 379 12 1896 l0 1902 63 -3 62 -3 5 -1920 5 -1920 145
-37 145 -36 3 1104 2 1104 65 0 65 0 2 -1117 3 -1117 75 -12 c41 -6 94 -14
118 -17 l42 -5 0 454 0 454 65 0 65 0 0 -459 0 -458 41 -6 c22 -3 43 -7 45
-10 3 -3 -85 -271 -195 -597 -116 -343 -201 -608 -201 -629 0 -53 26 -146 58
-205 34 -64 152 -184 216 -219 280 -155 630 -114 841 98 39 38 82 93 97 121
32 59 58 152 58 205 0 21 -87 291 -205 641 l-205 604 2 3415 3 3414 63 3 62 3
0 -3421 c0 -2729 3 -3420 13 -3420 20 0 190 20 215 26 l22 4 0 571 0 570 63
-3 62 -3 3 -557 c1 -307 4 -558 6 -558 8 0 202 41 219 46 16 5 17 29 17 320
l0 314 65 0 65 0 0 -299 0 -299 107 33 c59 19 110 32 112 29 3 -3 24 -288 47
-633 37 -557 44 -633 62 -667 105 -205 366 -311 636 -260 378 73 629 424 536
749 -9 29 -116 159 -429 516 l-417 477 100 53 c56 29 145 78 198 109 l98 57 0
1078 0 1078 63 -3 62 -3 3 -1027 c1 -566 5 -1028 10 -1028 8 0 209 148 260
192 l32 27 0 2005 0 2006 65 0 65 0 0 -1947 c0 -1719 -2 -1948 -15 -1963 -14
-15 12 -72 270 -592 l284 -575 53 -37 c87 -60 148 -78 273 -83 79 -4 129 -1
177 11 193 45 381 198 468 381 81 170 86 373 12 520 -56 111 -31 96 -650 402
l-572 283 71 82 c164 190 339 446 471 688 37 69 71 131 75 138 6 10 140 -102
483 -402 531 -465 503 -446 659 -446 164 0 282 51 407 175 136 134 202 283
211 475 9 193 -40 334 -157 450 -110 110 -65 102 -779 149 -343 23 -627 43
-629 46 -3 2 14 67 36 142 90 301 144 576 167 861 4 49 11 82 18 82 6 0 279
-91 606 -202 l595 -201 67 11 c203 35 362 183 436 407 24 72 27 95 27 225 0
133 -2 151 -28 225 -49 143 -130 253 -237 324 -71 47 -170 81 -239 81 -36 0
-197 -51 -640 -200 -326 -110 -594 -200 -596 -200 -2 0 -4 19 -4 43 0 64 -27
296 -51 437 -21 124 -88 397 -131 537 -12 40 -20 74 -17 76 2 2 287 23 633 46
l630 42 50 27 c111 60 208 196 242 338 22 96 15 284 -16 374 -40 119 -90 200
-175 286 -89 90 -197 153 -302 174 -72 15 -215 8 -265 -13 -20 -8 -246 -199
-503 -424 -256 -224 -469 -409 -473 -410 -4 -2 -29 41 -57 94 -114 221 -278
475 -425 658 -44 55 -93 116 -109 135 l-28 35 569 280 c625 307 598 291 657
415 59 124 65 281 15 428 -105 314 -435 524 -741 472 -80 -13 -191 -63 -239
-106 -23 -21 -109 -185 -305 -584 -150 -305 -276 -559 -280 -564 -4 -5 -48 25
-96 66 -230 193 -520 386 -760 507 -35 17 -63 35 -63 39 0 4 187 221 415 482
l414 474 16 67 c20 90 19 150 -5 244 -28 108 -80 197 -164 280 -137 134 -281
195 -481 202 -92 4 -135 1 -185 -12 -142 -37 -264 -121 -328 -228 l-33 -55
-42 -631 c-24 -346 -45 -633 -49 -636 -3 -4 -57 10 -120 30 -258 82 -571 145
-829 167 -77 7 -139 15 -139 18 0 3 90 270 200 594 148 438 200 602 200 637 0
66 -33 165 -78 235 -79 122 -236 227 -388 259 -97 21 -262 18 -349 -5z m1623
-7921 l2 -1586 -58 -22 c-33 -11 -62 -21 -66 -21 -3 0 -6 725 -6 1610 l0 1611
63 -3 62 -3 3 -1586z"/>
<path d="M13974 9619 c-244 -41 -475 -227 -571 -461 -178 -433 -52 -944 287
-1163 178 -116 435 -155 645 -99 202 53 367 195 445 381 31 74 60 192 60 244
l0 29 -139 0 c-125 0 -140 -2 -144 -17 -3 -10 -11 -43 -17 -73 -31 -142 -138
-275 -257 -320 -118 -44 -273 -34 -384 27 -66 36 -160 136 -198 210 -59 118
-76 200 -76 373 0 132 4 167 23 235 63 217 198 358 380 396 91 19 209 7 284
-28 35 -17 78 -43 97 -59 45 -38 105 -131 121 -188 l13 -46 148 0 c171 0 162
-7 133 104 -75 289 -347 469 -704 465 -52 -1 -118 -5 -146 -10z"/>
<path d="M15705 9624 c-108 -22 -138 -30 -190 -51 -84 -35 -182 -101 -244
-164 -287 -289 -332 -835 -99 -1196 153 -235 411 -358 712 -340 212 14 386 92
519 236 148 160 227 383 227 641 0 273 -85 497 -250 660 -153 152 -331 222
-558 219 -54 -1 -106 -3 -117 -5z m250 -250 c232 -60 377 -297 379 -619 2
-431 -255 -700 -605 -635 -130 24 -263 129 -328 257 -59 118 -76 200 -76 373
0 178 18 261 83 384 105 201 327 298 547 240z"/>
<path d="M16992 8750 l280 -840 165 2 165 3 284 830 c156 457 283 833 284 838
0 4 -67 7 -149 7 l-150 0 -100 -307 c-55 -170 -150 -467 -213 -660 -62 -194
-115 -353 -118 -353 -3 0 -79 235 -170 523 -90 287 -184 584 -208 660 l-43
137 -154 0 -153 0 280 -840z"/>
<path d="M18340 8750 l0 -840 150 0 150 0 0 840 0 840 -150 0 -150 0 0 -840z"/>
<path d="M19000 8751 l0 -841 383 0 c210 0 411 5 447 10 388 56 603 355 602
835 0 235 -49 417 -152 563 -63 89 -126 143 -225 192 -148 73 -150 74 -627 78
l-428 3 0 -840z m745 584 c285 -54 411 -260 392 -639 -11 -204 -47 -309 -139
-403 -56 -56 -141 -103 -228 -124 -37 -9 -124 -14 -265 -14 l-210 0 -3 598 -2
597 189 0 c125 0 215 -5 266 -15z"/>
<path d="M23230 9574 c-298 -64 -463 -354 -394 -692 42 -204 183 -353 371
-392 31 -7 102 -10 157 -8 133 5 203 35 281 120 30 33 55 56 55 51 -1 -41 -33
-238 -46 -282 -36 -126 -121 -230 -207 -256 -151 -45 -282 25 -318 169 l-11
46 -134 0 c-154 0 -148 6 -118 -105 40 -157 168 -281 338 -330 81 -24 268 -17
348 12 145 53 262 178 337 356 116 279 104 802 -24 1057 -69 137 -195 233
-339 259 -80 15 -217 13 -296 -5z m266 -234 c54 -23 114 -84 142 -143 45 -95
45 -235 1 -338 -26 -61 -111 -140 -166 -157 -100 -30 -212 -6 -281 61 -120
114 -133 363 -27 502 70 93 214 125 331 75z"/>
<path d="M22030 9545 c0 -54 -92 -157 -177 -200 -62 -31 -167 -55 -240 -55
l-53 0 0 -105 0 -105 200 0 200 0 0 -585 0 -585 150 0 150 0 0 825 0 825 -115
0 c-97 0 -115 -2 -115 -15z"/>
<path d="M20630 8555 l0 -125 345 0 345 0 0 125 0 125 -345 0 -345 0 0 -125z"/>
<path d="M20329 6604 c-196 -35 -344 -135 -414 -278 -75 -154 -45 -376 66
-487 86 -86 136 -107 467 -193 282 -74 343 -97 389 -149 79 -90 63 -236 -34
-316 -113 -93 -351 -107 -510 -30 -109 53 -167 137 -188 272 l-6 37 -144 0
-145 0 0 -43 c0 -24 9 -79 20 -121 53 -207 198 -345 430 -408 74 -19 108 -22
255 -22 142 0 183 4 248 22 181 50 308 145 375 280 l37 76 0 131 0 131 -38 76
c-43 88 -117 162 -200 202 -29 13 -174 57 -322 96 -272 72 -337 97 -388 144
-52 48 -72 136 -46 203 56 149 329 202 514 99 72 -40 110 -92 131 -178 l17
-68 143 0 144 0 0 48 c0 141 -87 291 -217 378 -147 98 -376 136 -584 98z"/>
<path d="M13410 5740 l0 -840 140 0 140 0 0 648 1 647 232 -645 232 -645 125
-3 125 -2 230 642 230 642 3 -642 2 -642 140 0 140 0 0 840 0 840 -204 0 -204
0 -15 -42 c-8 -24 -108 -315 -222 -648 -114 -333 -210 -608 -214 -612 -3 -4
-109 287 -236 647 l-230 655 -207 0 -208 0 0 -840z"/>
<path d="M25540 6300 l0 -180 -105 0 -105 0 0 -100 0 -99 103 -3 102 -3 5
-425 c4 -381 7 -429 23 -465 41 -91 110 -125 268 -133 58 -2 131 -2 162 2 l57
7 0 102 0 102 -91 0 c-90 0 -91 0 -120 33 l-29 32 0 375 0 375 120 0 120 0 0
100 0 100 -120 0 -120 0 0 180 0 180 -135 0 -135 0 0 -180z"/>
<path d="M31860 6300 l0 -180 -100 0 -100 0 0 -100 0 -100 100 0 100 0 0 -383
c0 -401 6 -473 43 -540 26 -46 65 -71 142 -92 60 -15 218 -20 288 -9 l37 7 0
101 0 101 -77 -3 c-91 -3 -120 8 -146 58 -15 32 -17 69 -15 395 l3 360 118 3
117 3 0 99 0 100 -120 0 -120 0 0 180 0 180 -135 0 -135 0 0 -180z"/>
<path d="M15880 6144 c-122 -21 -152 -29 -206 -54 -121 -55 -208 -170 -221
-293 l-6 -57 137 0 c134 0 136 0 136 23 0 34 42 99 80 124 116 79 337 63 403
-28 25 -34 33 -101 17 -139 -24 -57 -82 -84 -219 -100 -163 -20 -335 -52 -384
-71 -154 -61 -227 -182 -214 -355 7 -98 38 -163 103 -223 63 -58 135 -88 240
-101 139 -18 338 25 439 95 l50 34 23 -45 c18 -36 33 -50 70 -66 54 -24 147
-28 235 -9 l57 12 0 94 0 93 -49 -1 c-30 -1 -55 3 -63 11 -10 10 -14 101 -18
400 -5 380 -5 388 -29 439 -42 93 -136 164 -266 200 -50 14 -267 26 -315 17z
m338 -766 c-5 -135 -13 -161 -70 -214 -139 -132 -427 -108 -474 38 -21 66 29
159 107 199 36 18 238 58 297 59 15 1 50 9 77 19 28 10 54 19 59 20 4 0 6 -54
4 -121z"/>
<path d="M17077 6134 c-150 -27 -262 -98 -311 -197 -22 -43 -26 -64 -26 -141
0 -74 5 -100 24 -141 57 -123 153 -172 466 -239 192 -41 258 -74 287 -144 39
-94 -38 -173 -188 -192 -174 -21 -310 45 -340 165 l-11 45 -134 0 -134 0 0
-28 c0 -50 30 -146 61 -194 86 -133 245 -201 474 -201 260 1 440 83 516 238
26 54 31 74 31 143 1 105 -21 169 -77 226 -73 75 -139 102 -401 160 -235 53
-304 92 -304 175 0 81 78 126 215 126 53 0 96 -6 127 -18 54 -21 106 -75 115
-118 l6 -29 142 0 142 0 -8 47 c-23 120 -102 222 -213 274 -120 56 -295 73
-459 43z"/>
<path d="M18305 6135 c-176 -33 -290 -111 -330 -225 -20 -55 -19 -174 1 -233
31 -92 132 -173 264 -211 30 -9 116 -29 190 -45 236 -51 307 -92 317 -184 5
-39 2 -48 -28 -82 -41 -47 -79 -63 -171 -75 -171 -21 -300 39 -334 157 l-15
53 -136 0 -135 0 7 -52 c33 -242 215 -369 530 -370 306 -1 504 114 545 317 23
114 -12 240 -86 304 -71 63 -159 96 -372 142 -178 38 -242 61 -287 103 -29 27
-35 41 -35 73 0 75 62 118 187 130 129 12 245 -43 269 -128 l10 -34 143 -3
143 -3 -7 33 c-30 151 -116 253 -260 307 -110 41 -273 52 -410 26z"/>
<path d="M21935 6140 c-108 -23 -193 -72 -241 -141 l-29 -42 -3 81 -3 82 -124
0 -125 0 0 -835 0 -835 135 0 135 0 0 302 0 302 35 -41 c151 -177 498 -199
690 -44 89 72 151 182 187 330 28 118 22 350 -12 456 -66 209 -201 339 -395
380 -75 16 -185 18 -250 5z m163 -215 c99 -30 193 -142 227 -270 21 -83 20
-234 -4 -318 -94 -339 -506 -351 -622 -19 -41 116 -36 289 12 418 58 155 225
237 387 189z"/>
<path d="M23230 6135 c-215 -49 -371 -213 -431 -455 -30 -119 -23 -308 15
-426 61 -190 199 -322 389 -371 83 -21 252 -21 337 1 157 40 282 138 344 269
18 40 37 84 40 100 l6 27 -128 0 -129 0 -18 -41 c-26 -58 -112 -133 -171 -149
-109 -31 -238 -8 -313 56 -68 59 -121 171 -121 261 l0 33 448 2 447 3 -2 105
c-4 267 -148 482 -381 567 -86 32 -236 40 -332 18z m234 -216 c102 -38 187
-148 202 -262 l7 -47 -313 0 -313 0 7 48 c27 200 230 329 410 261z"/>
<path d="M24558 6140 c-216 -37 -380 -190 -443 -416 -25 -90 -31 -301 -11
-399 64 -315 321 -493 657 -455 256 29 402 162 464 423 l13 57 -139 0 c-128 0
-139 -1 -139 -18 0 -76 -94 -205 -173 -237 -24 -10 -70 -17 -107 -17 -195 -2
-319 163 -320 423 0 167 41 282 130 362 151 136 411 78 464 -103 l13 -45 137
-3 138 -3 -7 33 c-35 179 -115 284 -266 352 -107 49 -280 68 -411 46z"/>
<path d="M26753 6135 c-93 -29 -193 -109 -236 -189 l-22 -41 -3 108 -3 107
-124 0 -125 0 0 -610 0 -610 135 0 134 0 3 358 c3 347 4 359 26 415 36 89 90
150 166 187 61 30 70 32 155 29 l91 -4 0 133 0 132 -77 -1 c-43 0 -97 -6 -120
-14z"/>
<path d="M27475 6143 c-213 -28 -396 -178 -463 -378 -88 -264 -31 -569 137
-735 115 -113 248 -163 436 -163 179 0 312 46 421 146 124 113 183 252 191
453 16 358 -155 607 -459 668 -71 15 -190 19 -263 9z m202 -218 c145 -43 237
-184 250 -381 13 -206 -69 -375 -214 -441 -78 -36 -182 -35 -257 1 -177 87
-259 342 -186 578 60 194 230 295 407 243z"/>
<path d="M28943 6140 c-96 -20 -176 -73 -235 -154 l-28 -39 0 86 0 87 -130 0
-130 0 0 -610 0 -610 134 0 135 0 3 403 c4 453 5 457 80 542 124 141 336 120
383 -39 12 -40 15 -130 15 -478 l0 -428 134 0 135 0 3 408 c5 462 7 479 80
558 61 66 163 90 263 63 54 -15 109 -74 124 -132 7 -31 11 -184 11 -471 l0
-426 135 0 135 0 0 473 c0 498 -2 524 -48 612 -27 54 -66 89 -133 119 -134 62
-313 61 -436 -1 -29 -14 -78 -52 -111 -85 l-59 -59 -28 46 c-56 87 -158 136
-300 141 -49 2 -109 -1 -132 -6z"/>
<path d="M30863 6135 c-146 -32 -294 -146 -365 -280 -65 -126 -83 -201 -82
-355 0 -153 14 -222 69 -338 63 -133 194 -238 345 -277 79 -21 240 -23 325 -6
101 21 202 76 272 147 61 62 113 153 128 222 l7 32 -130 0 -130 0 -10 -27
c-17 -48 -69 -111 -114 -137 -91 -53 -231 -53 -329 1 -58 31 -90 66 -123 132
-26 51 -51 154 -42 177 5 12 73 14 452 14 l447 0 -5 113 c-7 143 -38 246 -109
351 -129 194 -364 283 -606 231z m255 -224 c97 -49 167 -148 179 -252 l6 -49
-309 2 -309 3 3 40 c7 84 85 205 156 242 91 48 197 53 274 14z"/>
<path d="M33094 6141 c-97 -24 -202 -106 -252 -198 l-31 -58 -1 118 0 117
-125 0 -125 0 0 -610 0 -610 135 0 135 0 0 319 c0 175 5 342 10 371 22 115 89
215 179 268 42 25 55 27 148 27 l103 0 0 90 c1 61 4 85 10 74 5 -9 107 -270
225 -580 l217 -564 -24 -74 c-52 -169 -118 -212 -275 -182 l-43 8 0 -113 c0
-130 -11 -118 118 -128 149 -12 263 24 341 109 71 77 76 89 460 1130 l170 460
-136 3 c-75 1 -140 -1 -144 -5 -4 -4 -74 -201 -154 -437 -80 -236 -149 -436
-154 -444 -9 -15 -8 -17 -202 535 l-124 353 -142 0 c-120 0 -143 2 -143 15 0
12 -14 15 -72 14 -40 -1 -87 -4 -104 -8z"/>
<path d="M14030 3604 c-195 -30 -326 -90 -448 -207 -270 -258 -339 -753 -157
-1122 80 -162 195 -278 350 -351 102 -48 175 -65 311 -71 159 -7 256 11 383
73 203 99 343 305 367 538 l7 66 -141 0 -142 0 -5 -27 c-31 -148 -67 -226
-141 -300 -159 -158 -447 -149 -616 20 -108 107 -166 264 -175 467 -10 233 49
414 176 541 76 75 146 112 245 130 222 38 408 -66 483 -271 l21 -55 146 -3
c140 -2 146 -2 146 17 0 48 -25 132 -62 209 -88 185 -275 307 -522 341 -74 11
-173 12 -226 5z"/>
<path d="M17790 2730 l0 -840 135 0 135 0 0 840 0 840 -135 0 -135 0 0 -840z"/>
<path d="M18360 3440 l0 -130 135 0 135 0 0 130 0 130 -135 0 -135 0 0 -130z"/>
<path d="M19710 3440 l0 -130 135 0 135 0 0 130 0 130 -135 0 -135 0 0 -130z"/>
<path d="M18990 3290 l0 -180 -100 0 -100 0 0 -100 0 -100 99 0 100 0 3 -412
c4 -355 7 -420 21 -464 20 -61 76 -117 134 -134 47 -15 256 -25 317 -16 l46 7
0 102 0 102 -96 0 c-92 0 -97 1 -119 27 -33 38 -36 85 -33 458 l3 325 123 3
122 3 0 99 0 100 -125 0 -125 0 0 180 0 180 -135 0 -135 0 0 -180z"/>
<path d="M15514 3131 c-72 -12 -119 -28 -199 -70 -189 -98 -295 -302 -295
-566 0 -321 157 -547 430 -621 88 -23 271 -24 360 -1 213 56 359 205 417 427
23 90 23 301 0 390 -58 216 -204 371 -402 424 -71 19 -239 28 -311 17z m244
-231 c69 -30 153 -120 181 -196 93 -247 7 -529 -187 -617 -67 -30 -179 -29
-247 4 -102 48 -181 162 -206 294 -15 82 -6 226 20 300 69 198 261 291 439
215z"/>
<path d="M16864 3129 c-165 -21 -278 -80 -348 -182 -34 -49 -66 -145 -66 -194
0 -23 1 -23 133 -23 l133 0 11 43 c14 51 63 103 123 131 70 31 218 29 285 -4
64 -32 95 -77 95 -141 0 -89 -59 -130 -217 -149 -128 -16 -322 -49 -363 -62
-112 -35 -196 -110 -226 -201 -24 -71 -24 -196 0 -267 26 -76 110 -159 191
-189 100 -38 205 -47 317 -28 114 20 191 47 258 92 l50 33 19 -43 c27 -62 81
-88 181 -89 41 0 99 5 128 13 l52 13 0 91 0 92 -50 0 c-27 0 -55 6 -62 13 -10
10 -14 102 -18 405 -5 375 -6 394 -27 439 -74 161 -315 245 -599 207z m351
-866 c-23 -162 -289 -255 -457 -161 -60 33 -82 68 -81 126 1 59 22 103 68 137
46 36 101 51 266 75 76 11 153 26 171 33 l33 14 3 -91 c2 -50 0 -110 -3 -133z"/>
<path d="M20683 3125 c-293 -53 -473 -294 -473 -631 0 -317 160 -547 430 -620
80 -21 271 -24 350 -5 211 51 366 204 426 422 25 90 25 318 0 409 -47 171
-148 300 -290 371 -130 64 -284 83 -443 54z m272 -226 c57 -27 127 -94 155
-149 30 -59 60 -183 60 -249 0 -69 -22 -176 -49 -236 -28 -64 -112 -148 -174
-176 -113 -49 -257 -21 -344 69 -153 158 -165 467 -25 650 34 45 107 93 162
109 60 17 157 9 215 -18z"/>
<path d="M22195 3126 c-102 -25 -190 -82 -246 -159 l-29 -40 0 91 0 92 -130 0
-130 0 0 -610 0 -610 134 0 135 0 3 403 3 402 26 56 c101 215 387 242 476 44
16 -36 18 -81 21 -472 l3 -433 135 0 135 0 -3 483 -3 482 -24 60 c-33 81 -107
155 -186 184 -109 41 -223 51 -320 27z"/>
<path d="M18360 2500 l0 -610 135 0 135 0 0 610 0 610 -135 0 -135 0 0 -610z"/>
<path d="M19710 2500 l0 -610 135 0 135 0 0 610 0 610 -135 0 -135 0 0 -610z"/>
</g>
</svg>
